<?xml version="1.0" encoding="utf-8"?>
<!-- Generator: Adobe Illustrator 16.0.0, SVG Export Plug-In . SVG Version: 6.00 Build 0)  -->
<!DOCTYPE svg PUBLIC "-//W3C//DTD SVG 1.1//EN" "http://www.w3.org/Graphics/SVG/1.1/DTD/svg11.dtd">
<svg version="1.1" id="Layer_1" xmlns="http://www.w3.org/2000/svg" xmlns:xlink="http://www.w3.org/1999/xlink" x="0px" y="0px"
	 width="2416.09px" height="610px" viewBox="0 0 2416.09 610" enable-background="new 0 0 2416.09 610" xml:space="preserve">
<g>
	<polygon fill="#17385F" points="627.125,226.736 627.125,226.676 319.894,226.676 319.894,182.938 627.125,182.938 
		627.125,154.589 262.745,154.589 262.745,110.059 627.125,110.059 627.125,81.71 218.137,81.71 218.153,480.943 377.06,480.943 
		377.06,255.019 419.971,255.019 419.971,480.943 466.473,480.943 466.473,255.019 508.784,255.019 508.784,480.943 
		555.309,480.943 555.309,255.019 598.787,255.019 598.787,480.943 627.136,480.943 627.136,226.736 	"/>
	<g>
		<path fill="#17385F" d="M870.642,484.479c-29.461,0-51.674-22.929-51.674-53.338c0-30.188,22.813-53.822,51.961-53.822
			c19.382,0,30.64,7.859,39.915,16.342l3.426,3.14l-11.38,11.648l-3.205-3.101c-6.51-6.29-15.042-12.706-28.905-12.706
			c-20.246,0-35.514,16.325-35.514,37.965c0,21.597,15.664,38.527,35.663,38.527c11.263,0,19.816-3.91,29.538-13.517l3.128-3.101
			l11.153,10.911l-3.249,3.188C902.56,475.446,890.707,484.479,870.642,484.479z"/>
		<path fill="#17385F" d="M1011.301,484.479c-29.704,0-52.109-22.929-52.109-53.338c0-30.188,23.006-53.822,52.373-53.822
			c29.23,0,51.636,22.511,52.071,52.352v2.021C1063.2,461.292,1040.211,484.479,1011.301,484.479z M1011.301,392.643
			c-20.424,0-35.817,16.325-35.817,37.965c0,21.597,15.852,38.527,36.081,38.527c20.412,0,35.801-16.325,35.801-37.993
			C1047.365,409.557,1031.52,392.643,1011.301,392.643z"/>
	</g>
	<polygon fill="#17385F" points="1197.486,482.805 1137.286,406.863 1137.286,482.805 1121.528,482.805 1121.528,378.922 
		1134.83,378.922 1193.687,453.135 1193.687,378.922 1209.433,378.922 1209.433,482.805 	"/>
	<g>
		<path fill="#17385F" d="M1305.875,484.188c-15.879,0-28.603-5.034-41.237-16.309l-3.311-2.952l10.57-12.101l3.376,3.084
			c10.085,9.314,18.793,12.933,30.998,12.933c11.5,0,19.53-5.915,19.53-14.381c0-6.444-1.724-11.737-23.254-16.066
			c-24.961-5.067-35.619-14.358-35.619-31.113c0-16.948,15.053-29.726,35.014-29.726c13.984,0,24.223,3.641,35.344,12.519
			l3.514,2.81l-10.206,12.651l-3.514-2.996c-7.706-6.653-15.549-9.639-25.413-9.639c-10.823,0-18.705,5.64-18.705,13.428
			c0,5.47,0,11.671,24.086,16.639c24.03,4.881,34.754,14.31,34.754,30.563C1341.802,471.586,1327.024,484.188,1305.875,484.188z"/>
		<path fill="#17385F" d="M1440.805,484.325c-26.773,0-43.423-17.416-43.423-45.445v-59.958h16.033v59.286
			c0,19.84,9.825,30.772,27.649,30.772c17.74,0,27.12-10.415,27.12-30.101v-59.958h16.017v59.165
			C1484.201,466.602,1467.578,484.325,1440.805,484.325z"/>
	</g>
	<polygon fill="#17385F" points="1546.104,482.805 1546.104,378.922 1562.137,378.922 1562.137,467.361 1617.876,467.361 
		1617.876,482.805 	"/>
	<polygon fill="#17385F" points="1678.798,482.805 1678.798,394.421 1645.68,394.421 1645.68,378.922 1727.895,378.922 
		1727.895,394.421 1694.814,394.421 1694.814,482.805 	"/>
	<rect x="1781.871" y="378.922" fill="#17385F" width="16" height="103.883"/>
	<polygon fill="#17385F" points="1936.889,482.805 1876.655,406.863 1876.655,482.805 1860.93,482.805 1860.93,378.922 
		1874.226,378.922 1933.082,453.135 1933.082,378.922 1948.818,378.922 1948.818,482.805 	"/>
	<g>
		<path fill="#17385F" d="M2058.947,484.479c-30.739,0-52.22-21.932-52.22-53.338c0-26.465,19.222-53.822,51.388-53.822
			c15.174,0,26.035,3.911,37.568,13.517l3.531,2.93l-10.548,12.117l-3.415-2.946c-6.103-5.365-13.653-10.294-27.55-10.294
			c-19.459,0-34.699,16.672-34.699,37.965c0,23.133,14.546,38.665,36.203,38.665c12.723,0,22.136-5.877,25.754-8.548v-20.621
			h-31.741v-15.461h47.499v43.099l-0.727,0.65C2088.304,478.757,2073.735,484.479,2058.947,484.479z"/>
	</g>
	<polygon fill="#17385F" points="2177.365,118.54 2177.365,87.493 2165.815,87.493 2165.815,81.528 2195.122,81.528 
		2195.122,87.493 2183.605,87.493 2183.605,118.54 	"/>
	<polygon fill="#17385F" points="2234.492,118.54 2234.492,93.139 2223.636,118.54 2219.703,118.54 2208.842,93.105 
		2208.842,118.54 2202.618,118.54 2202.618,81.528 2210.517,81.528 2221.687,107.415 2232.994,81.528 2240.737,81.528 
		2240.737,118.54 	"/>
	<polygon fill="#17385F" points="1507.78,315.582 1507.78,130.135 1396.814,130.135 1396.814,81.654 1665.937,81.654 
		1665.937,130.135 1556.227,130.135 1556.227,315.582 	"/>
	<rect x="2053.979" y="81.771" fill="#17385F" width="48.48" height="233.812"/>
	<polygon fill="#17385F" points="819.502,315.582 819.519,81.654 1057.285,81.654 1057.285,130.135 868.158,130.135 
		868.158,184.078 972.657,184.078 972.657,232.547 868.158,232.547 868.158,315.582 	"/>
</g>
</svg>
